<?xml version="1.0" standalone="no"?>
<!DOCTYPE svg PUBLIC "-//W3C//DTD SVG 20010904//EN"
 "http://www.w3.org/TR/2001/REC-SVG-20010904/DTD/svg10.dtd">
<svg version="1.0" xmlns="http://www.w3.org/2000/svg"
 width="512.000000pt" height="512.000000pt" viewBox="0 0 512.000000 512.000000"
 preserveAspectRatio="xMidYMid meet">
<metadata>
Created by potrace 1.14, written by Peter Selinger 2001-2017
</metadata>
<g transform="translate(0.000000,512.000000) scale(0.100000,-0.100000)"
fill="#000000" stroke="none">
<path d="M2444 4600 c-100 -10 -149 -23 -239 -62 -89 -38 -110 -58 -136 -127
-47 -125 -33 -293 30 -360 28 -30 29 -34 21 -85 -11 -68 -28 -109 -89 -209
-102 -171 -125 -229 -168 -432 l-28 -130 0 -725 c0 -950 18 -1363 70 -1565 32
-127 132 -273 214 -314 20 -10 83 -31 141 -46 96 -25 122 -28 295 -29 179 -1
196 1 295 27 156 42 208 79 282 197 96 153 122 322 148 970 13 330 13 1378 0
1495 -15 127 -57 308 -90 386 -15 36 -55 110 -88 165 -105 173 -123 243 -77
312 29 44 55 146 55 218 0 60 -24 148 -52 187 -25 34 -151 94 -238 112 -88 18
-248 25 -346 15z m273 -61 c102 -14 208 -55 254 -99 45 -42 63 -98 63 -195 1
-121 -41 -171 -181 -217 -36 -12 -63 -27 -63 -34 0 -19 48 -18 106 2 25 8 47
14 48 12 1 -2 7 -40 14 -85 12 -87 37 -148 102 -243 78 -115 138 -263 165
-404 35 -186 39 -339 27 -1051 -18 -1038 -37 -1249 -123 -1402 -69 -120 -181
-207 -304 -234 -92 -21 -440 -18 -529 4 -134 33 -239 120 -305 250 -87 174
-105 381 -122 1407 -10 560 -10 726 0 855 21 256 69 408 180 574 71 105 98
168 111 258 5 36 10 67 12 69 2 2 31 -5 64 -16 73 -22 193 -40 274 -40 44 0
59 4 64 16 4 9 4 19 2 22 -3 2 -49 9 -103 14 -217 20 -320 60 -359 139 -45 89
-41 222 7 283 22 27 105 74 171 95 89 29 293 39 425 20z"/>
<path d="M2220 4403 c0 -25 6 -33 42 -49 38 -17 68 -19 298 -19 244 0 257 1
296 22 37 20 60 53 47 67 -3 3 -17 -1 -32 -8 -56 -29 -146 -38 -337 -34 -179
5 -219 11 -296 43 -15 6 -18 2 -18 -22z"/>
<path d="M2152 4278 c-17 -17 -15 -90 4 -116 32 -46 65 -13 39 38 -8 16 -15
40 -15 54 0 29 -12 40 -28 24z"/>
<path d="M2247 4183 c-22 -21 19 -103 44 -88 14 9 11 48 -7 73 -16 23 -26 27
-37 15z"/>
<path d="M2705 4011 c-8 -25 1 -41 21 -41 11 0 14 8 12 27 -4 33 -24 41 -33
14z"/>
<path d="M2625 3990 c-7 -23 10 -50 30 -50 18 0 24 21 14 48 -10 28 -36 29
-44 2z"/>
<path d="M2887 3883 c-35 -35 48 -259 124 -335 55 -55 81 -21 33 43 -36 48
-98 173 -120 242 -17 55 -24 64 -37 50z"/>
<path d="M3050 2418 c0 -294 1 -315 20 -345 21 -34 49 -47 96 -41 29 3 29 4
25 58 -2 39 -8 58 -22 68 -18 12 -19 30 -19 293 l0 279 -50 0 -50 0 0 -312z"/>
<path d="M2090 2442 c0 -199 -3 -241 -16 -260 -21 -30 -49 -28 -76 8 l-22 30
-33 -32 c-18 -18 -33 -40 -33 -50 0 -10 18 -38 39 -61 38 -40 42 -42 100 -42
53 0 63 4 91 30 52 50 60 98 60 372 l0 243 -55 0 -55 0 0 -238z"/>
<path d="M2400 2529 c-40 -16 -71 -50 -96 -104 -19 -40 -24 -67 -24 -136 0
-105 19 -164 67 -213 79 -78 185 -51 239 62 22 46 31 190 15 248 -29 108 -123
176 -201 143z m87 -149 c7 -14 13 -59 13 -101 0 -62 -4 -81 -21 -103 -26 -33
-42 -33 -68 0 -17 22 -21 41 -21 108 0 59 5 88 16 104 21 31 64 26 81 -8z"/>
<path d="M2771 2524 c-44 -23 -77 -74 -97 -153 -28 -112 3 -251 68 -306 52
-44 143 -45 194 -2 l26 22 -17 43 c-14 33 -21 41 -34 36 -9 -4 -34 -9 -56 -12
-45 -4 -68 13 -80 61 l-7 27 100 0 100 0 6 33 c7 38 -7 131 -27 178 -32 75
-108 107 -176 73z m93 -120 c9 -8 16 -26 16 -40 0 -22 -3 -24 -55 -24 -48 0
-55 2 -55 20 0 25 34 60 59 60 11 0 27 -7 35 -16z"/>
</g>
</svg>
